<mxfile host="Electron" agent="Mozilla/5.0 (X11; Linux x86_64) AppleWebKit/537.36 (KHTML, like Gecko) draw.io/24.7.17 Chrome/128.0.6613.186 Electron/32.2.5 Safari/537.36" version="24.7.17">
  <diagram name="Page-1" id="compatibility-standard-definitions-components">
    <mxGraphModel dx="2012" dy="1824" grid="1" gridSize="10" guides="1" tooltips="1" connect="1" arrows="1" fold="1" page="0" pageScale="1" pageWidth="850" pageHeight="1100" background="none" math="0" shadow="0">
      <root>
        <mxCell id="0" />
        <mxCell id="1" parent="0" />
        <mxCell id="main-frame" value="github.com/graphql-go/compatibility-standard-definitions" style="shape=umlFrame;whiteSpace=wrap;html=1;rounded=0;shadow=0;comic=0;labelBackgroundColor=none;strokeWidth=1;fontFamily=Verdana;fontSize=12;align=center;width=400;height=30;" parent="1" vertex="1">
          <mxGeometry x="20" y="-650" width="1810" height="750" as="geometry" />
        </mxCell>
        <mxCell id="main-package" value="&lt;p style=&quot;margin:0px;margin-top:4px;text-align:center;&quot;&gt;&lt;i&gt;&amp;lt;&amp;lt;Package&amp;gt;&amp;gt;&lt;/i&gt;&lt;br&gt;&lt;b&gt;main&lt;/b&gt;&lt;br&gt;&lt;/p&gt;&lt;hr size=&quot;1&quot;&gt;&lt;p style=&quot;margin:0px;margin-left:4px;&quot;&gt;+ main()&lt;br&gt;&lt;/p&gt;" style="verticalAlign=top;align=left;overflow=fill;fontSize=11;fontFamily=Helvetica;html=1;rounded=0;shadow=0;comic=0;labelBackgroundColor=none;strokeWidth=1" parent="1" vertex="1">
          <mxGeometry x="80" y="-564" width="200" height="80" as="geometry" />
        </mxCell>
        <mxCell id="app-package" value="&lt;p style=&quot;margin:0px;margin-top:4px;text-align:center;&quot;&gt;&lt;i&gt;&amp;lt;&amp;lt;Package&amp;gt;&amp;gt;&lt;/i&gt;&lt;br&gt;&lt;b&gt;app&lt;/b&gt;&lt;br&gt;&lt;/p&gt;&lt;hr size=&quot;1&quot;&gt;&lt;p style=&quot;margin:0px;margin-left:4px;&quot;&gt;+ App&lt;br&gt;+ RunResult&lt;br&gt;+ RunParams&lt;br&gt;+ Run(params RunParams): *RunResult&lt;br&gt;&lt;/p&gt;" style="verticalAlign=top;align=left;overflow=fill;fontSize=11;fontFamily=Helvetica;html=1;rounded=0;shadow=0;comic=0;labelBackgroundColor=none;strokeWidth=1" parent="1" vertex="1">
          <mxGeometry x="540" y="-395" width="280" height="120" as="geometry" />
        </mxCell>
        <mxCell id="cmd-package" value="&lt;p style=&quot;margin:0px;margin-top:4px;text-align:center;&quot;&gt;&lt;i&gt;&amp;lt;&amp;lt;Package&amp;gt;&amp;gt;&lt;/i&gt;&lt;br&gt;&lt;b&gt;cmd&lt;/b&gt;&lt;br&gt;&lt;/p&gt;&lt;hr size=&quot;1&quot;&gt;&lt;p style=&quot;margin:0px;margin-left:4px;&quot;&gt;+ CLI&lt;br&gt;+ RunResult&lt;br&gt;+ RunParams&lt;br&gt;+ Run(p *RunParams): *RunResult&lt;br&gt;&lt;/p&gt;" style="verticalAlign=top;align=left;overflow=fill;fontSize=11;fontFamily=Helvetica;html=1;rounded=0;shadow=0;comic=0;labelBackgroundColor=none;strokeWidth=1" parent="1" vertex="1">
          <mxGeometry x="100" y="-310" width="280" height="120" as="geometry" />
        </mxCell>
        <mxCell id="config-package" value="&lt;p style=&quot;margin:0px;margin-top:4px;text-align:center;&quot;&gt;&lt;i&gt;&amp;lt;&amp;lt;Package&amp;gt;&amp;gt;&lt;/i&gt;&lt;br&gt;&lt;b&gt;config&lt;/b&gt;&lt;br&gt;&lt;/p&gt;&lt;hr size=&quot;1&quot;&gt;&lt;p style=&quot;margin:0px;margin-left:4px;&quot;&gt;+ Config&lt;br&gt;+ New(): *Config&lt;br&gt;&lt;/p&gt;" style="verticalAlign=top;align=left;overflow=fill;fontSize=11;fontFamily=Helvetica;html=1;rounded=0;shadow=0;comic=0;labelBackgroundColor=none;strokeWidth=1" parent="1" vertex="1">
          <mxGeometry x="1090" y="-570" width="200" height="90" as="geometry" />
        </mxCell>
        <mxCell id="executor-package" value="&lt;p style=&quot;margin:0px;margin-top:4px;text-align:center;&quot;&gt;&lt;i&gt;&amp;lt;&amp;lt;Package&amp;gt;&amp;gt;&lt;/i&gt;&lt;br&gt;&lt;b&gt;executor&lt;/b&gt;&lt;br&gt;&lt;/p&gt;&lt;hr size=&quot;1&quot;&gt;&lt;p style=&quot;margin:0px;margin-left:4px;&quot;&gt;+ Executor&lt;br&gt;+ New(): *Executor&lt;br&gt;&lt;/p&gt;" style="verticalAlign=top;align=left;overflow=fill;fontSize=11;fontFamily=Helvetica;html=1;rounded=0;shadow=0;comic=0;labelBackgroundColor=none;strokeWidth=1" parent="1" vertex="1">
          <mxGeometry x="560" y="-100" width="200" height="90" as="geometry" />
        </mxCell>
        <mxCell id="extractor-package" value="&lt;p style=&quot;margin:0px;margin-top:4px;text-align:center;&quot;&gt;&lt;i&gt;&amp;lt;&amp;lt;Package&amp;gt;&amp;gt;&lt;/i&gt;&lt;br&gt;&lt;b&gt;extractor&lt;/b&gt;&lt;br&gt;&lt;/p&gt;&lt;hr size=&quot;1&quot;&gt;&lt;p style=&quot;margin:0px;margin-left:4px;&quot;&gt;+ Extractor&lt;br&gt;+ NewParams&lt;br&gt;+ New(params *NewParams): *Extractor&lt;br&gt;&lt;/p&gt;" style="verticalAlign=top;align=left;overflow=fill;fontSize=11;fontFamily=Helvetica;html=1;rounded=0;shadow=0;comic=0;labelBackgroundColor=none;strokeWidth=1" parent="1" vertex="1">
          <mxGeometry x="880" y="-190" width="280" height="100" as="geometry" />
        </mxCell>
        <mxCell id="puller-package" value="&lt;p style=&quot;margin:0px;margin-top:4px;text-align:center;&quot;&gt;&lt;i&gt;&amp;lt;&amp;lt;Package&amp;gt;&amp;gt;&lt;/i&gt;&lt;br&gt;&lt;b&gt;puller&lt;/b&gt;&lt;br&gt;&lt;/p&gt;&lt;hr size=&quot;1&quot;&gt;&lt;p style=&quot;margin:0px;margin-left:4px;&quot;&gt;+ Puller&lt;br&gt;+ PullParams&lt;br&gt;+ Pull(params *PullParams)&lt;br&gt;&lt;/p&gt;" style="verticalAlign=top;align=left;overflow=fill;fontSize=11;fontFamily=Helvetica;html=1;rounded=0;shadow=0;comic=0;labelBackgroundColor=none;strokeWidth=1" parent="1" vertex="1">
          <mxGeometry x="1220" y="-130" width="220" height="100" as="geometry" />
        </mxCell>
        <mxCell id="validator-package" value="&lt;p style=&quot;margin:0px;margin-top:4px;text-align:center;&quot;&gt;&lt;i&gt;&amp;lt;&amp;lt;Package&amp;gt;&amp;gt;&lt;/i&gt;&lt;br&gt;&lt;b&gt;validator&lt;/b&gt;&lt;br&gt;&lt;/p&gt;&lt;hr size=&quot;1&quot;&gt;&lt;p style=&quot;margin:0px;margin-left:4px;&quot;&gt;+ Validator&lt;br&gt;+ Validate()&lt;br&gt;&lt;/p&gt;" style="verticalAlign=top;align=left;overflow=fill;fontSize=11;fontFamily=Helvetica;html=1;rounded=0;shadow=0;comic=0;labelBackgroundColor=none;strokeWidth=1" parent="1" vertex="1">
          <mxGeometry x="1600" y="-380" width="180" height="90" as="geometry" />
        </mxCell>
        <mxCell id="types-package" value="&lt;p style=&quot;margin:0px;margin-top:4px;text-align:center;&quot;&gt;&lt;i&gt;&amp;lt;&amp;lt;Package&amp;gt;&amp;gt;&lt;/i&gt;&lt;br&gt;&lt;b&gt;types&lt;/b&gt;&lt;br&gt;&lt;/p&gt;&lt;hr size=&quot;1&quot;&gt;&lt;p style=&quot;margin:0px;margin-left:4px;&quot;&gt;+ Specification&lt;br&gt;+ Implementation&lt;br&gt;&lt;/p&gt;" style="verticalAlign=top;align=left;overflow=fill;fontSize=11;fontFamily=Helvetica;html=1;rounded=0;shadow=0;comic=0;labelBackgroundColor=none;strokeWidth=1" parent="1" vertex="1">
          <mxGeometry x="1360" y="-590" width="180" height="90" as="geometry" />
        </mxCell>
        <mxCell id="bubbletea-package" value="&lt;p style=&quot;margin:0px;margin-top:4px;text-align:center;&quot;&gt;&lt;i&gt;&amp;lt;&amp;lt;Package&amp;gt;&amp;gt;&lt;/i&gt;&lt;br&gt;&lt;b&gt;bubbletea&lt;/b&gt;&lt;br&gt;&lt;/p&gt;&lt;hr size=&quot;1&quot;&gt;&lt;p style=&quot;margin:0px;margin-left:4px;&quot;&gt;+ Params&lt;br&gt;+ UIParams&lt;br&gt;+ New(params *Params)&lt;br&gt;+ Run()&lt;br&gt;&lt;/p&gt;" style="verticalAlign=top;align=left;overflow=fill;fontSize=11;fontFamily=Helvetica;html=1;rounded=0;shadow=0;comic=0;labelBackgroundColor=none;strokeWidth=1" parent="1" vertex="1">
          <mxGeometry x="250" y="-60" width="220" height="120" as="geometry" />
        </mxCell>
        <mxCell id="main-to-app" style="edgeStyle=orthogonalEdgeStyle;rounded=0;html=1;dashed=1;labelBackgroundColor=none;startFill=0;endArrow=open;endFill=0;endSize=8;fontFamily=Helvetica;fontSize=10;" parent="1" source="main-package" target="app-package" edge="1">
          <mxGeometry relative="1" as="geometry" />
        </mxCell>
        <mxCell id="main-to-cmd" style="edgeStyle=orthogonalEdgeStyle;rounded=0;html=1;dashed=1;labelBackgroundColor=none;startFill=0;endArrow=open;endFill=0;endSize=8;fontFamily=Helvetica;fontSize=10;" parent="1" source="main-package" target="cmd-package" edge="1">
          <mxGeometry relative="1" as="geometry" />
        </mxCell>
        <mxCell id="main-to-config" style="edgeStyle=orthogonalEdgeStyle;rounded=0;html=1;dashed=1;labelBackgroundColor=none;startFill=0;endArrow=open;endFill=0;endSize=8;fontFamily=Helvetica;fontSize=10;" parent="1" source="main-package" target="config-package" edge="1">
          <mxGeometry relative="1" as="geometry" />
        </mxCell>
        <mxCell id="app-to-config" style="edgeStyle=orthogonalEdgeStyle;rounded=0;html=1;dashed=1;labelBackgroundColor=none;startFill=0;endArrow=open;endFill=0;endSize=8;fontFamily=Helvetica;fontSize=10;" parent="1" source="app-package" target="config-package" edge="1">
          <mxGeometry relative="1" as="geometry" />
        </mxCell>
        <mxCell id="app-to-executor" style="edgeStyle=orthogonalEdgeStyle;rounded=0;html=1;dashed=1;labelBackgroundColor=none;startFill=0;endArrow=open;endFill=0;endSize=8;fontFamily=Helvetica;fontSize=10;" parent="1" source="app-package" target="executor-package" edge="1">
          <mxGeometry relative="1" as="geometry" />
        </mxCell>
        <mxCell id="app-to-extractor" style="edgeStyle=orthogonalEdgeStyle;rounded=0;html=1;dashed=1;labelBackgroundColor=none;startFill=0;endArrow=open;endFill=0;endSize=8;fontFamily=Helvetica;fontSize=10;" parent="1" source="app-package" target="extractor-package" edge="1">
          <mxGeometry relative="1" as="geometry" />
        </mxCell>
        <mxCell id="app-to-puller" style="edgeStyle=orthogonalEdgeStyle;rounded=0;html=1;dashed=1;labelBackgroundColor=none;startFill=0;endArrow=open;endFill=0;endSize=8;fontFamily=Helvetica;fontSize=10;" parent="1" source="app-package" target="puller-package" edge="1">
          <mxGeometry relative="1" as="geometry" />
        </mxCell>
        <mxCell id="app-to-validator" style="edgeStyle=orthogonalEdgeStyle;rounded=0;html=1;dashed=1;labelBackgroundColor=none;startFill=0;endArrow=open;endFill=0;endSize=8;fontFamily=Helvetica;fontSize=10;" parent="1" source="app-package" target="validator-package" edge="1">
          <mxGeometry relative="1" as="geometry" />
        </mxCell>
        <mxCell id="app-to-types" style="edgeStyle=orthogonalEdgeStyle;rounded=0;html=1;dashed=1;labelBackgroundColor=none;startFill=0;endArrow=open;endFill=0;endSize=8;fontFamily=Helvetica;fontSize=10;" parent="1" source="app-package" target="types-package" edge="1">
          <mxGeometry relative="1" as="geometry" />
        </mxCell>
        <mxCell id="cmd-to-bubbletea" style="edgeStyle=orthogonalEdgeStyle;rounded=0;html=1;dashed=1;labelBackgroundColor=none;startFill=0;endArrow=open;endFill=0;endSize=8;fontFamily=Helvetica;fontSize=10;" parent="1" source="cmd-package" target="bubbletea-package" edge="1">
          <mxGeometry relative="1" as="geometry" />
        </mxCell>
        <mxCell id="extractor-to-config" style="edgeStyle=orthogonalEdgeStyle;rounded=0;html=1;dashed=1;labelBackgroundColor=none;startFill=0;endArrow=open;endFill=0;endSize=8;fontFamily=Helvetica;fontSize=10;" parent="1" source="extractor-package" target="config-package" edge="1">
          <mxGeometry relative="1" as="geometry" />
        </mxCell>
        <mxCell id="extractor-to-executor" style="edgeStyle=orthogonalEdgeStyle;rounded=0;html=1;dashed=1;labelBackgroundColor=none;startFill=0;endArrow=open;endFill=0;endSize=8;fontFamily=Helvetica;fontSize=10;" parent="1" source="extractor-package" target="executor-package" edge="1">
          <mxGeometry relative="1" as="geometry" />
        </mxCell>
      </root>
    </mxGraphModel>
  </diagram>
</mxfile>
